<?xml version="1.0" encoding="UTF-8"?>
<svg width="1327px" height="166px" viewBox="0 0 1327 166" version="1.1" xmlns="http://www.w3.org/2000/svg" xmlns:xlink="http://www.w3.org/1999/xlink">
    <!-- Generator: Sketch 47.1 (45422) - http://www.bohemiancoding.com/sketch -->
    <title>Group 2</title>
    <desc>Created with Sketch.</desc>
    <defs></defs>
    <g id="Page-1" stroke="none" stroke-width="1" fill="none" fill-rule="evenodd">
        <g id="Group-2">
            <g id="Group" transform="translate(183.000000, 50.000000)" fill-rule="nonzero">
                <path d="M55.8,45 C57.2,47.3 57.9,49.8 57.9,52.6 L57.9,69.4 C57.9,74.9 55.9,79.7 52,83.6 C48.1,87.5 43.4,89.5 37.8,89.5 L3.6,89.5 C2.2,89.5 1.5,88.8 1.5,87.4 L1.5,73.9 C1.5,72.5 2.2,71.8 3.6,71.8 L31.7,71.8 C34.9,71.8 36.4,70.2 36.4,67.1 L36.4,59.7 C36.4,56.8 35.1,55 32.5,54.4 L12.2,49.5 C9.4,49 6.9,47.7 4.8,45.5 C4.7,45.4 4.6,45.3 4.5,45.2 C3.8,44.4 3.2,43.7 2.7,42.8 C1.3,40.5 0.6,38 0.6,35.2 L0.6,20.6 C0.6,15.1 2.6,10.3 6.5,6.4 C10.4,2.5 15.1,0.5 20.7,0.5 L53.1,0.5 C54.5,0.5 55.2,1.2 55.2,2.6 L55.2,16.1 C55.2,17.5 54.5,18.2 53.1,18.2 L26.8,18.2 C23.6,18.2 22.1,19.8 22.1,22.9 L22.1,27.9 C22.1,30.8 23.4,32.6 26,33.2 L46.3,38.1 C49.1,38.6 51.6,39.9 53.7,42.1 C53.8,42.2 53.9,42.3 54,42.4 C54.7,43.4 55.3,44.2 55.8,45 Z" id="Shape" fill="#202020"></path>
                <path d="M88.2,2.7 L88.2,66.4 C88.2,70 90,71.7 93.5,71.7 L98.6,71.7 C102.2,71.7 103.9,69.9 103.9,66.4 L103.9,2.7 C103.9,1.3 104.6,0.6 106,0.6 L123.1,0.6 C124.5,0.6 125.2,1.3 125.2,2.7 L125.2,69.5 C125.2,75 123.2,79.8 119.3,83.7 C115.4,87.6 110.7,89.6 105.1,89.6 L87,89.6 C81.3,89.6 76.4,87.6 72.5,83.7 C68.6,79.8 66.6,75.1 66.6,69.5 L66.6,2.7 C66.6,1.3 67.3,0.6 68.7,0.6 L86,0.6 C87.4,0.5 88.2,1.2 88.2,2.7 Z" id="Shape" fill="#202020"></path>
                <path d="M192,39.8 C192,45.3 190,50.1 186.1,54 C182.2,57.9 177.5,59.9 171.9,59.9 L156.9,59.9 C156,59.9 155.5,60.4 155.5,61.3 L155.5,87.4 C155.5,88.8 154.8,89.5 153.4,89.5 L136.3,89.5 C134.9,89.5 134.2,88.8 134.2,87.4 L134.2,2.7 C134.2,1.3 134.9,0.6 136.3,0.6 L171.9,0.6 C177.4,0.6 182.2,2.6 186.1,6.5 C190,10.4 192,15.1 192,20.7 L192,39.8 Z M155.5,18.8 L155.5,41.2 C155.5,42.1 156,42.6 156.9,42.6 L166.4,42.6 C169.2,42.6 170.6,41.2 170.6,38.4 L170.6,21.6 C170.6,18.8 169.2,17.4 166.4,17.4 L156.9,17.4 C156,17.4 155.5,17.9 155.5,18.8 Z" id="Shape" fill="#202020"></path>
                <path d="M200.9,69.4 L200.9,2.7 C200.9,1.3 201.6,0.6 203,0.6 L252.1,0.6 C253.5,0.6 254.2,1.3 254.2,2.7 L254.2,16.2 C254.2,17.6 253.5,18.3 252.1,18.3 L223.6,18.3 C222.7,18.3 222.2,18.8 222.2,19.7 L222.2,34.6 C222.2,35.5 222.7,36 223.6,36 L247.3,36 C248.7,36 249.4,36.7 249.4,38.1 L249.4,51.6 C249.4,53 248.7,53.7 247.3,53.7 L223.6,53.7 C222.7,53.7 222.2,54.2 222.2,55.1 L222.2,63.8 C222.2,68.9 224.8,71.5 229.9,71.5 L253.6,71.5 C255,71.5 255.7,72.2 255.7,73.6 L255.7,87.1 C255.7,88.5 255,89.2 253.6,89.2 L220.9,89.2 C215.4,89.2 210.6,87.2 206.7,83.3 C202.8,79.7 200.9,75 200.9,69.4 Z" id="Shape" fill="#202020"></path>
                <path d="M317.1,44.9 C320.4,48.6 322.1,53 322.1,58.1 L322.1,87.3 C322.1,88.7 321.4,89.4 320,89.4 L302.6,89.4 C301.2,89.4 300.5,88.7 300.5,87.3 L300.5,58.6 C300.5,55.4 298.9,53.9 295.8,53.9 L287.2,53.9 C286.4,53.9 286,54.4 286,55.3 L286,87.3 C286,88.7 285.3,89.4 283.9,89.4 L266.8,89.4 C265.4,89.4 264.7,88.7 264.7,87.3 L264.7,2.7 C264.7,1.3 265.4,0.6 266.8,0.6 L301.8,0.6 C307.3,0.6 312.1,2.6 316,6.5 C319.9,10.4 321.9,15.1 321.9,20.7 L321.9,32.1 C321.8,36.9 320.3,41.2 317.1,44.9 L317.1,44.9 Z M285.9,19.7 L285.9,34.6 C285.9,35.5 286.4,36 287.3,36 L296.3,36 C299.1,36 300.5,34.6 300.5,31.8 L300.5,22.3 C300.5,19.5 299.1,18.1 296.3,18.1 L287.3,18.1 C286.4,18.3 285.9,18.8 285.9,19.7 Z" id="Shape" fill="#202020"></path>
                <path d="M388.8,39.8 C388.8,45.3 386.8,50.1 382.9,54 C379,57.9 374.3,59.9 368.7,59.9 L353.7,59.9 C352.8,59.9 352.3,60.4 352.3,61.3 L352.3,87.4 C352.3,88.8 351.6,89.5 350.2,89.5 L333.1,89.5 C331.7,89.5 331,88.8 331,87.4 L331,2.7 C331,1.3 331.7,0.6 333.1,0.6 L368.7,0.6 C374.2,0.6 379,2.6 382.9,6.5 C386.8,10.4 388.8,15.1 388.8,20.7 L388.8,39.8 Z M352.4,18.8 L352.4,41.2 C352.4,42.1 352.9,42.6 353.8,42.6 L363.3,42.6 C366.1,42.6 367.4,41.2 367.4,38.4 L367.4,21.6 C367.4,18.8 366,17.4 363.3,17.4 L353.8,17.4 C352.8,17.4 352.4,17.9 352.4,18.8 Z" id="Shape" fill="#34BACF"></path>
                <path d="M415.9,68.4 L412.9,87.3 C412.7,88.7 411.8,89.4 410.4,89.4 L392.6,89.4 C391.4,89.4 390.8,88.9 390.8,87.9 C390.8,87.7 390.8,87.5 390.9,87.2 L407,2.7 C407.3,1.3 408.1,0.6 409.6,0.6 L438.2,0.6 C439.6,0.6 440.5,1.3 440.7,2.7 L456.9,87.4 C456.9,87.6 457,87.9 457,88.1 C457,89.1 456.4,89.6 455.2,89.6 L437.4,89.6 C436,89.6 435.1,88.9 434.9,87.5 L431.9,68.6 L415.9,68.6 L415.9,68.4 Z M423.9,19.6 L418.6,52.1 L429.3,52.1 L423.9,19.6 Z" id="Shape" fill="#34BACF"></path>
                <path d="M469,18.3 L453.7,18.3 C452.3,18.3 451.6,17.6 451.6,16.2 L451.6,2.7 C451.6,1.3 452.3,0.6 453.7,0.6 L508.4,0.6 C509.8,0.6 510.5,1.3 510.5,2.7 L510.5,16.3 C510.5,17.7 509.8,18.4 508.4,18.4 L493.2,18.4 C492.3,18.4 491.8,18.9 491.8,19.8 L491.8,87.4 C491.8,88.8 491.1,89.5 489.7,89.5 L472.6,89.5 C471.2,89.5 470.5,88.8 470.5,87.4 L470.5,19.7 C470.4,18.8 469.9,18.3 469,18.3 Z" id="Shape" fill="#34BACF"></path>
                <path d="M569.8,44.9 C573.1,48.6 574.8,53 574.8,58.1 L574.8,87.3 C574.8,88.7 574.1,89.4 572.7,89.4 L555.3,89.4 C553.9,89.4 553.2,88.7 553.2,87.3 L553.2,58.6 C553.2,55.4 551.6,53.9 548.5,53.9 L539.9,53.9 C539.1,53.9 538.7,54.4 538.7,55.3 L538.7,87.3 C538.7,88.7 538,89.4 536.6,89.4 L519.5,89.4 C518.1,89.4 517.4,88.7 517.4,87.3 L517.4,2.7 C517.4,1.3 518.1,0.6 519.5,0.6 L554.5,0.6 C560,0.6 564.8,2.6 568.7,6.5 C572.6,10.4 574.6,15.1 574.6,20.7 L574.6,32.1 C574.5,36.9 573,41.2 569.8,44.9 L569.8,44.9 Z M538.6,19.7 L538.6,34.6 C538.6,35.5 539.1,36 540,36 L549,36 C551.8,36 553.2,34.6 553.2,31.8 L553.2,22.3 C553.2,19.5 551.8,18.1 549,18.1 L540,18.1 C539.1,18.3 538.6,18.8 538.6,19.7 Z" id="Shape" fill="#34BACF"></path>
                <path d="M642.2,69.4 C642.2,74.9 640.2,79.7 636.3,83.6 C632.4,87.5 627.7,89.5 622.1,89.5 L603.7,89.5 C598.2,89.5 593.4,87.5 589.5,83.6 C585.6,79.7 583.6,75 583.6,69.4 L583.6,20.6 C583.6,15.1 585.6,10.3 589.5,6.4 C593.4,2.5 598.1,0.5 603.7,0.5 L622.1,0.5 C627.6,0.5 632.4,2.5 636.3,6.4 C640.2,10.3 642.2,15 642.2,20.6 L642.2,69.4 Z M605.1,66.3 C605.1,69.9 606.9,71.6 610.4,71.6 L615.5,71.6 C619.1,71.6 620.8,69.8 620.8,66.3 L620.8,23.6 C620.8,20 619,18.3 615.5,18.3 L610.4,18.3 C606.8,18.3 605.1,20.1 605.1,23.6 L605.1,66.3 Z" id="Shape" fill="#34BACF"></path>
                <path d="M697.8,53.5 L697.8,2.7 C697.8,1.3 698.5,0.6 699.9,0.6 L717,0.6 C718.4,0.6 719.1,1.3 719.1,2.7 L719.1,87.4 C719.1,88.8 718.4,89.5 717,89.5 L692.5,89.5 C691.1,89.5 690.1,88.8 689.7,87.4 L672.4,36.2 L672.4,87.4 C672.4,88.8 671.7,89.5 670.3,89.5 L653.2,89.5 C651.8,89.5 651.1,88.8 651.1,87.4 L651.1,2.7 C651.1,1.3 651.8,0.6 653.2,0.6 L677.9,0.6 C679.3,0.6 680.3,1.3 680.7,2.7 L697.8,53.5 Z" id="Shape" fill="#34BACF"></path>
                <path d="M728.1,69.4 L728.1,2.7 C728.1,1.3 728.8,0.6 730.2,0.6 L779.3,0.6 C780.7,0.6 781.4,1.3 781.4,2.7 L781.4,16.2 C781.4,17.6 780.7,18.3 779.3,18.3 L750.8,18.3 C749.9,18.3 749.4,18.8 749.4,19.7 L749.4,34.6 C749.4,35.5 749.9,36 750.8,36 L774.5,36 C775.9,36 776.6,36.7 776.6,38.1 L776.6,51.6 C776.6,53 775.9,53.7 774.5,53.7 L750.8,53.7 C749.9,53.7 749.4,54.2 749.4,55.1 L749.4,63.8 C749.4,68.9 752,71.5 757.1,71.5 L780.8,71.5 C782.2,71.5 782.9,72.2 782.9,73.6 L782.9,87.1 C782.9,88.5 782.2,89.2 780.8,89.2 L748.1,89.2 C742.6,89.2 737.8,87.2 733.9,83.3 C730,79.7 728.1,75 728.1,69.4 Z" id="Shape" fill="#34BACF"></path>
                <path d="M838.6,53.5 L838.6,2.7 C838.6,1.3 839.3,0.6 840.7,0.6 L857.8,0.6 C859.2,0.6 859.9,1.3 859.9,2.7 L859.9,87.4 C859.9,88.8 859.2,89.5 857.8,89.5 L833.3,89.5 C831.9,89.5 830.9,88.8 830.5,87.4 L813.2,36.2 L813.2,87.4 C813.2,88.8 812.5,89.5 811.1,89.5 L794,89.5 C792.6,89.5 791.9,88.8 791.9,87.4 L791.9,2.7 C791.9,1.3 792.6,0.6 794,0.6 L818.7,0.6 C820.1,0.6 821.1,1.3 821.5,2.7 L838.6,53.5 Z" id="Shape" fill="#34BACF"></path>
            </g>
            <g id="Group" fill-rule="nonzero">
                <path d="M99.7,55.1 L69.4,0.5 L77.1,77.8 L0.3,87.5 L72.8,109.1 L60.7,165.7 C70.8,124 87.7,90.8 105,65.5 C105,65.5 128.2,33.4 145.6,18.9 C145.6,18.9 111.5,39.5 99.7,55.1 Z" id="Shape" fill="#202020"></path>
                <path d="M156.4,59.6 C170.1,45.2 189.4,36.9 189.4,36.9 C162.9,45.7 141.1,62.6 141.1,62.6 C100.3,93.7 75.6,139.3 64.5,163.6 L100.5,120.7 L167.2,157.5 L119.4,98 L162.5,58.3 L156.4,59.6 Z" id="Shape" fill="#34BACF"></path>
            </g>
            <path d="M1137.12494,135.855889 C1137.49877,138.223468 1139.11869,139.968 1141.48627,139.968 L1165.78511,139.968 C1168.40191,139.968 1170.02183,137.974249 1170.39566,135.482061 L1180.73824,54.4859391 C1181.11207,51.9937507 1179.49215,50 1176.62613,50 L1163.91597,50 C1161.04995,50 1159.67925,51.9937507 1159.30542,54.4859391 L1151.45503,119.282837 L1140.98784,54.2367202 C1140.61401,51.8691413 1138.99409,50 1136.62651,50 L1122.17181,50 C1120.05345,50 1118.18431,51.7445319 1117.81048,54.1121108 L1107.34329,119.407446 L1099.36829,54.4859391 C1098.99446,51.9937507 1097.99759,50 1094.88235,50 L1082.17219,50 C1079.05695,50 1077.68625,51.9937507 1078.06008,54.4859391 L1088.40266,135.482061 C1088.77649,137.974249 1090.2718,139.968 1092.8886,139.968 L1117.18744,139.968 C1119.55502,139.968 1121.17494,138.348078 1121.54877,135.855889 L1129.39916,84.6414183 L1137.12494,135.855889 Z M1191.95309,134.983623 C1191.95309,138.348078 1193.57301,139.968 1196.93746,139.968 L1209.02458,139.968 C1212.38903,139.968 1214.00895,138.348078 1214.00895,134.983623 L1214.00895,54.9843767 C1214.00895,51.6199224 1212.38903,50 1209.02458,50 L1196.93746,50 C1193.57301,50 1191.95309,51.6199224 1191.95309,54.9843767 L1191.95309,134.983623 Z M1233.94646,50 C1230.58201,50 1228.96209,51.6199224 1228.96209,54.9843767 L1228.96209,134.983623 C1228.96209,138.348078 1230.58201,139.968 1233.94646,139.968 L1246.03358,139.968 C1249.39803,139.968 1251.01795,138.348078 1251.01795,134.983623 L1251.01795,103.58205 L1254.63163,103.58205 C1257.12381,103.58205 1259.49139,105.201972 1260.11444,107.569551 L1268.8371,136.603546 C1269.33554,138.472687 1270.70624,139.968 1273.57226,139.968 L1286.65625,139.968 C1289.77148,139.968 1292.38828,137.475812 1291.3914,134.360576 L1281.79648,103.831269 C1280.42577,99.8437673 1278.0582,96.8531413 1275.06757,94.4855623 C1278.0582,91.993374 1280.42577,89.0027479 1281.79648,85.0152465 L1291.01758,55.8566427 C1292.01445,52.4921884 1289.52226,50 1286.15781,50 L1273.32304,50 C1270.70624,50 1269.21093,51.495313 1268.58788,53.3644543 L1260.11444,81.276964 C1259.24217,83.6445429 1257.12381,85.3890748 1254.63163,85.3890748 L1251.01795,85.3890748 L1251.01795,54.9843767 C1251.01795,51.6199224 1249.39803,50 1246.03358,50 L1233.94646,50 Z M1303.97695,134.983623 C1303.97695,138.348078 1305.59688,139.968 1308.96133,139.968 L1321.04845,139.968 C1324.4129,139.968 1326.03282,138.348078 1326.03282,134.983623 L1326.03282,54.9843767 C1326.03282,51.6199224 1324.4129,50 1321.04845,50 L1308.96133,50 C1305.59688,50 1303.97695,51.6199224 1303.97695,54.9843767 L1303.97695,134.983623 Z" id="WIKI" fill="#202020"></path>
        </g>
    </g>
</svg>